<?xml version="1.0" standalone="no"?>
<!DOCTYPE svg PUBLIC "-//W3C//DTD SVG 20010904//EN"
 "http://www.w3.org/TR/2001/REC-SVG-20010904/DTD/svg10.dtd">
<svg version="1.0" xmlns="http://www.w3.org/2000/svg"
 width="672.000000pt" height="446.000000pt" viewBox="0 0 672.000000 446.000000"
 preserveAspectRatio="xMidYMid meet">

<g transform="translate(0.000000,446.000000) scale(0.100000,-0.100000)"
fill="#000000" stroke="none">
<path d="M1552 2599 c-38 -19 -65 -48 -140 -149 -11 -15 -8 -20 22 -38 l35
-21 -2 -123 c-1 -108 2 -130 22 -183 43 -106 151 -195 276 -227 28 -6 58 -18
67 -26 16 -13 14 -18 -23 -63 -23 -26 -59 -60 -81 -74 -59 -39 -35 -54 31 -20
29 14 56 23 61 20 13 -8 24 15 12 27 -8 8 -2 22 19 50 17 21 29 45 26 52 -11
27 26 27 64 0 l39 -27 -41 -48 c-22 -26 -56 -58 -75 -69 -18 -12 -34 -28 -34
-36 0 -19 8 -17 55 11 22 14 52 25 68 25 29 0 37 17 12 26 -12 5 -9 13 15 42
37 45 38 65 3 87 l-26 18 54 17 c106 32 204 112 264 214 30 51 93 92 225 145
114 46 169 121 140 191 -16 38 -61 56 -106 42 -32 -10 -34 -9 -34 14 0 32 -25
80 -45 88 -39 14 -81 6 -108 -22 -39 -41 -57 -103 -58 -201 0 -47 -4 -106 -7
-131 -7 -42 -10 -46 -45 -54 -50 -13 -150 4 -213 35 -71 36 -125 104 -174 219
-55 127 -94 175 -162 195 -68 20 -85 19 -136 -6z m179 -54 c19 -18 56 -82 91
-155 81 -171 150 -233 293 -265 l30 -7 -28 -24 c-64 -55 -233 -70 -334 -29
-48 19 -99 72 -109 112 -17 66 42 111 105 80 39 -19 54 -2 21 25 -36 29 -96
24 -132 -12 -28 -28 -30 -36 -26 -80 6 -63 39 -106 109 -145 51 -29 60 -30
174 -30 111 0 124 2 172 27 28 15 60 39 71 53 15 19 29 25 57 25 l37 0 -20
-32 c-36 -56 -121 -134 -177 -161 -199 -98 -449 -31 -533 144 -30 62 -38 120
-31 214 6 88 -1 122 -33 146 -24 18 -26 15 58 104 l44 47 65 -4 c55 -3 69 -8
96 -33z m720 -22 c8 -9 13 -36 12 -65 -1 -54 4 -57 60 -33 45 18 84 6 93 -29
11 -46 -38 -102 -116 -132 -25 -9 -76 -32 -114 -51 -37 -19 -69 -33 -71 -31
-1 2 1 64 5 138 7 140 21 188 57 209 27 16 59 13 74 -6z"/>
<path d="M1524 2496 c-9 -24 4 -48 23 -44 24 4 24 52 0 56 -9 2 -20 -4 -23
-12z"/>
</g>
</svg>
